<mxfile host="app.diagrams.net" agent="Mozilla/5.0 (Windows NT 10.0; Win64; x64; rv:132.0) Gecko/20100101 Firefox/132.0" version="24.8.4">
  <diagram name="Page-1" id="1MazCy2ozHTjzl5XAZdj">
    <mxGraphModel dx="1290" dy="558" grid="1" gridSize="10" guides="1" tooltips="1" connect="1" arrows="1" fold="1" page="1" pageScale="1" pageWidth="850" pageHeight="1100" math="0" shadow="0">
      <root>
        <mxCell id="0" />
        <mxCell id="1" parent="0" />
        <mxCell id="eEUwu_0mKjTyCW-i72Yi-36" style="edgeStyle=orthogonalEdgeStyle;rounded=0;orthogonalLoop=1;jettySize=auto;html=1;exitX=0.783;exitY=0.011;exitDx=0;exitDy=0;entryX=0.5;entryY=1;entryDx=0;entryDy=0;exitPerimeter=0;endArrow=none;endFill=0;strokeWidth=1;jumpStyle=none;shape=link;" parent="1" source="eEUwu_0mKjTyCW-i72Yi-1" target="eEUwu_0mKjTyCW-i72Yi-35" edge="1">
          <mxGeometry relative="1" as="geometry">
            <Array as="points">
              <mxPoint x="280" y="185" />
              <mxPoint x="280" y="185" />
            </Array>
          </mxGeometry>
        </mxCell>
        <mxCell id="eEUwu_0mKjTyCW-i72Yi-1" value="Musician" style="rounded=0;whiteSpace=wrap;html=1;fontSize=18;fontStyle=1" parent="1" vertex="1">
          <mxGeometry x="170" y="210" width="140" height="60" as="geometry" />
        </mxCell>
        <mxCell id="eEUwu_0mKjTyCW-i72Yi-3" value="Instrument" style="rounded=0;whiteSpace=wrap;html=1;fontSize=18;fontStyle=1" parent="1" vertex="1">
          <mxGeometry x="400" y="90" width="140" height="60" as="geometry" />
        </mxCell>
        <mxCell id="eEUwu_0mKjTyCW-i72Yi-4" value="Album" style="rounded=0;whiteSpace=wrap;html=1;fontSize=18;fontStyle=1" parent="1" vertex="1">
          <mxGeometry x="120" y="440" width="140" height="60" as="geometry" />
        </mxCell>
        <mxCell id="eEUwu_0mKjTyCW-i72Yi-5" value="Song" style="rounded=0;whiteSpace=wrap;html=1;fontSize=18;fontStyle=1" parent="1" vertex="1">
          <mxGeometry x="570" y="330" width="140" height="60" as="geometry" />
        </mxCell>
        <mxCell id="eEUwu_0mKjTyCW-i72Yi-6" value="ID" style="ellipse;whiteSpace=wrap;html=1;fontSize=16;fontStyle=4" parent="1" vertex="1">
          <mxGeometry x="160" y="140" width="70" height="40" as="geometry" />
        </mxCell>
        <mxCell id="eEUwu_0mKjTyCW-i72Yi-8" value="name" style="ellipse;whiteSpace=wrap;html=1;fontSize=16;fontStyle=0" parent="1" vertex="1">
          <mxGeometry x="90" y="160" width="70" height="40" as="geometry" />
        </mxCell>
        <mxCell id="eEUwu_0mKjTyCW-i72Yi-9" value="address" style="ellipse;whiteSpace=wrap;html=1;fontSize=16;fontStyle=0" parent="1" vertex="1">
          <mxGeometry x="320" y="220" width="70" height="40" as="geometry" />
        </mxCell>
        <mxCell id="eEUwu_0mKjTyCW-i72Yi-10" value="street" style="ellipse;whiteSpace=wrap;html=1;fontSize=16;fontStyle=0" parent="1" vertex="1">
          <mxGeometry x="380" y="250" width="70" height="40" as="geometry" />
        </mxCell>
        <mxCell id="eEUwu_0mKjTyCW-i72Yi-11" value="city" style="ellipse;whiteSpace=wrap;html=1;fontSize=16;fontStyle=0" parent="1" vertex="1">
          <mxGeometry x="380" y="190" width="70" height="40" as="geometry" />
        </mxCell>
        <mxCell id="eEUwu_0mKjTyCW-i72Yi-12" value="" style="endArrow=none;html=1;rounded=0;exitX=0;exitY=1;exitDx=0;exitDy=0;entryX=1;entryY=0;entryDx=0;entryDy=0;" parent="1" source="eEUwu_0mKjTyCW-i72Yi-11" target="eEUwu_0mKjTyCW-i72Yi-9" edge="1">
          <mxGeometry width="50" height="50" relative="1" as="geometry">
            <mxPoint x="340" y="410" as="sourcePoint" />
            <mxPoint x="390" y="360" as="targetPoint" />
          </mxGeometry>
        </mxCell>
        <mxCell id="eEUwu_0mKjTyCW-i72Yi-13" value="" style="endArrow=none;html=1;rounded=0;exitX=0;exitY=0;exitDx=0;exitDy=0;entryX=1;entryY=1;entryDx=0;entryDy=0;" parent="1" source="eEUwu_0mKjTyCW-i72Yi-10" target="eEUwu_0mKjTyCW-i72Yi-9" edge="1">
          <mxGeometry width="50" height="50" relative="1" as="geometry">
            <mxPoint x="65" y="430" as="sourcePoint" />
            <mxPoint x="95" y="420" as="targetPoint" />
          </mxGeometry>
        </mxCell>
        <mxCell id="eEUwu_0mKjTyCW-i72Yi-15" value="" style="endArrow=none;html=1;rounded=0;exitX=1;exitY=1;exitDx=0;exitDy=0;entryX=0;entryY=0;entryDx=0;entryDy=0;" parent="1" source="eEUwu_0mKjTyCW-i72Yi-8" target="eEUwu_0mKjTyCW-i72Yi-1" edge="1">
          <mxGeometry width="50" height="50" relative="1" as="geometry">
            <mxPoint x="200" y="296" as="sourcePoint" />
            <mxPoint x="215" y="280" as="targetPoint" />
          </mxGeometry>
        </mxCell>
        <mxCell id="eEUwu_0mKjTyCW-i72Yi-16" value="" style="endArrow=none;html=1;rounded=0;exitX=0.5;exitY=1;exitDx=0;exitDy=0;entryX=0.25;entryY=0;entryDx=0;entryDy=0;" parent="1" source="eEUwu_0mKjTyCW-i72Yi-6" target="eEUwu_0mKjTyCW-i72Yi-1" edge="1">
          <mxGeometry width="50" height="50" relative="1" as="geometry">
            <mxPoint x="160" y="204" as="sourcePoint" />
            <mxPoint x="180" y="220" as="targetPoint" />
          </mxGeometry>
        </mxCell>
        <mxCell id="eEUwu_0mKjTyCW-i72Yi-17" value="name" style="ellipse;whiteSpace=wrap;html=1;fontSize=16;fontStyle=4" parent="1" vertex="1">
          <mxGeometry x="390" y="30" width="70" height="40" as="geometry" />
        </mxCell>
        <mxCell id="eEUwu_0mKjTyCW-i72Yi-18" value="key" style="ellipse;whiteSpace=wrap;html=1;fontSize=16;fontStyle=0" parent="1" vertex="1">
          <mxGeometry x="480" y="30" width="70" height="40" as="geometry" />
        </mxCell>
        <mxCell id="eEUwu_0mKjTyCW-i72Yi-20" value="" style="endArrow=none;html=1;rounded=0;exitX=0.5;exitY=1;exitDx=0;exitDy=0;entryX=0.25;entryY=0;entryDx=0;entryDy=0;" parent="1" source="eEUwu_0mKjTyCW-i72Yi-17" target="eEUwu_0mKjTyCW-i72Yi-3" edge="1">
          <mxGeometry width="50" height="50" relative="1" as="geometry">
            <mxPoint x="205" y="180" as="sourcePoint" />
            <mxPoint x="215" y="210" as="targetPoint" />
          </mxGeometry>
        </mxCell>
        <mxCell id="eEUwu_0mKjTyCW-i72Yi-21" value="" style="endArrow=none;html=1;rounded=0;exitX=0.5;exitY=1;exitDx=0;exitDy=0;entryX=0.75;entryY=0;entryDx=0;entryDy=0;" parent="1" source="eEUwu_0mKjTyCW-i72Yi-18" target="eEUwu_0mKjTyCW-i72Yi-3" edge="1">
          <mxGeometry width="50" height="50" relative="1" as="geometry">
            <mxPoint x="445" y="80" as="sourcePoint" />
            <mxPoint x="445" y="100" as="targetPoint" />
          </mxGeometry>
        </mxCell>
        <mxCell id="eEUwu_0mKjTyCW-i72Yi-23" value="title" style="ellipse;whiteSpace=wrap;html=1;fontSize=16;fontStyle=4" parent="1" vertex="1">
          <mxGeometry x="40" y="510" width="70" height="40" as="geometry" />
        </mxCell>
        <mxCell id="eEUwu_0mKjTyCW-i72Yi-24" value="copyrightDate" style="ellipse;whiteSpace=wrap;html=1;fontSize=16;fontStyle=0" parent="1" vertex="1">
          <mxGeometry x="100" y="540" width="120" height="40" as="geometry" />
        </mxCell>
        <mxCell id="eEUwu_0mKjTyCW-i72Yi-25" value="albumId" style="ellipse;whiteSpace=wrap;html=1;fontSize=16;fontStyle=0" parent="1" vertex="1">
          <mxGeometry x="230" y="530" width="70" height="40" as="geometry" />
        </mxCell>
        <mxCell id="eEUwu_0mKjTyCW-i72Yi-26" value="" style="endArrow=none;html=1;rounded=0;exitX=1;exitY=0;exitDx=0;exitDy=0;entryX=0.25;entryY=1;entryDx=0;entryDy=0;" parent="1" source="eEUwu_0mKjTyCW-i72Yi-23" target="eEUwu_0mKjTyCW-i72Yi-4" edge="1">
          <mxGeometry width="50" height="50" relative="1" as="geometry">
            <mxPoint x="45" y="310" as="sourcePoint" />
            <mxPoint x="35" y="330" as="targetPoint" />
          </mxGeometry>
        </mxCell>
        <mxCell id="eEUwu_0mKjTyCW-i72Yi-27" value="" style="endArrow=none;html=1;rounded=0;exitX=0.5;exitY=0;exitDx=0;exitDy=0;entryX=0.5;entryY=1;entryDx=0;entryDy=0;" parent="1" source="eEUwu_0mKjTyCW-i72Yi-24" target="eEUwu_0mKjTyCW-i72Yi-4" edge="1">
          <mxGeometry width="50" height="50" relative="1" as="geometry">
            <mxPoint x="165" y="430" as="sourcePoint" />
            <mxPoint x="165" y="450" as="targetPoint" />
          </mxGeometry>
        </mxCell>
        <mxCell id="eEUwu_0mKjTyCW-i72Yi-28" value="" style="endArrow=none;html=1;rounded=0;exitX=0;exitY=0;exitDx=0;exitDy=0;entryX=0.75;entryY=1;entryDx=0;entryDy=0;" parent="1" source="eEUwu_0mKjTyCW-i72Yi-25" target="eEUwu_0mKjTyCW-i72Yi-4" edge="1">
          <mxGeometry width="50" height="50" relative="1" as="geometry">
            <mxPoint x="280" y="430" as="sourcePoint" />
            <mxPoint x="235" y="450" as="targetPoint" />
          </mxGeometry>
        </mxCell>
        <mxCell id="eEUwu_0mKjTyCW-i72Yi-29" value="title" style="ellipse;whiteSpace=wrap;html=1;fontSize=16;fontStyle=4" parent="1" vertex="1">
          <mxGeometry x="720" y="290" width="70" height="40" as="geometry" />
        </mxCell>
        <mxCell id="eEUwu_0mKjTyCW-i72Yi-30" value="author" style="ellipse;whiteSpace=wrap;html=1;fontSize=16;fontStyle=0" parent="1" vertex="1">
          <mxGeometry x="730" y="340" width="70" height="40" as="geometry" />
        </mxCell>
        <mxCell id="eEUwu_0mKjTyCW-i72Yi-31" value="" style="endArrow=none;html=1;rounded=0;exitX=1;exitY=0.25;exitDx=0;exitDy=0;entryX=0;entryY=1;entryDx=0;entryDy=0;" parent="1" source="eEUwu_0mKjTyCW-i72Yi-5" target="eEUwu_0mKjTyCW-i72Yi-29" edge="1">
          <mxGeometry width="50" height="50" relative="1" as="geometry">
            <mxPoint x="355" y="250" as="sourcePoint" />
            <mxPoint x="365" y="280" as="targetPoint" />
          </mxGeometry>
        </mxCell>
        <mxCell id="eEUwu_0mKjTyCW-i72Yi-32" value="" style="endArrow=none;html=1;rounded=0;exitX=1;exitY=0.75;exitDx=0;exitDy=0;entryX=0;entryY=0.5;entryDx=0;entryDy=0;" parent="1" source="eEUwu_0mKjTyCW-i72Yi-5" target="eEUwu_0mKjTyCW-i72Yi-30" edge="1">
          <mxGeometry width="50" height="50" relative="1" as="geometry">
            <mxPoint x="605" y="460" as="sourcePoint" />
            <mxPoint x="605" y="480" as="targetPoint" />
          </mxGeometry>
        </mxCell>
        <mxCell id="eEUwu_0mKjTyCW-i72Yi-33" value="phone" style="ellipse;whiteSpace=wrap;html=1;fontSize=16;fontStyle=0" parent="1" vertex="1">
          <mxGeometry x="70" y="220" width="70" height="40" as="geometry" />
        </mxCell>
        <mxCell id="eEUwu_0mKjTyCW-i72Yi-34" value="" style="endArrow=none;html=1;rounded=0;exitX=1;exitY=0.5;exitDx=0;exitDy=0;entryX=0;entryY=0.5;entryDx=0;entryDy=0;" parent="1" source="eEUwu_0mKjTyCW-i72Yi-33" target="eEUwu_0mKjTyCW-i72Yi-1" edge="1">
          <mxGeometry width="50" height="50" relative="1" as="geometry">
            <mxPoint x="200" y="296" as="sourcePoint" />
            <mxPoint x="215" y="280" as="targetPoint" />
          </mxGeometry>
        </mxCell>
        <mxCell id="eEUwu_0mKjTyCW-i72Yi-37" style="edgeStyle=orthogonalEdgeStyle;rounded=0;orthogonalLoop=1;jettySize=auto;html=1;entryX=0;entryY=0.5;entryDx=0;entryDy=0;endArrow=none;endFill=0;" parent="1" source="eEUwu_0mKjTyCW-i72Yi-35" target="eEUwu_0mKjTyCW-i72Yi-3" edge="1">
          <mxGeometry relative="1" as="geometry" />
        </mxCell>
        <mxCell id="eEUwu_0mKjTyCW-i72Yi-35" value="Plays" style="rhombus;whiteSpace=wrap;html=1;strokeWidth=1;fontSize=14;fontStyle=0" parent="1" vertex="1">
          <mxGeometry x="240" y="80" width="80" height="80" as="geometry" />
        </mxCell>
        <mxCell id="eEUwu_0mKjTyCW-i72Yi-41" value="Performs" style="rhombus;whiteSpace=wrap;html=1;strokeWidth=1;fontSize=14;fontStyle=0" parent="1" vertex="1">
          <mxGeometry x="240" y="320" width="80" height="80" as="geometry" />
        </mxCell>
        <mxCell id="eEUwu_0mKjTyCW-i72Yi-42" value="" style="endArrow=none;html=1;rounded=0;entryX=0.5;entryY=0;entryDx=0;entryDy=0;" parent="1" target="eEUwu_0mKjTyCW-i72Yi-41" edge="1">
          <mxGeometry width="50" height="50" relative="1" as="geometry">
            <mxPoint x="280" y="270" as="sourcePoint" />
            <mxPoint x="480" y="330" as="targetPoint" />
          </mxGeometry>
        </mxCell>
        <mxCell id="eEUwu_0mKjTyCW-i72Yi-43" value="" style="endArrow=none;html=1;rounded=0;entryX=1;entryY=0.5;entryDx=0;entryDy=0;exitX=0;exitY=0.5;exitDx=0;exitDy=0;shape=link;" parent="1" source="eEUwu_0mKjTyCW-i72Yi-5" target="eEUwu_0mKjTyCW-i72Yi-41" edge="1">
          <mxGeometry width="50" height="50" relative="1" as="geometry">
            <mxPoint x="290" y="280" as="sourcePoint" />
            <mxPoint x="290" y="310" as="targetPoint" />
          </mxGeometry>
        </mxCell>
        <mxCell id="eEUwu_0mKjTyCW-i72Yi-44" value="" style="endArrow=none;html=1;rounded=0;exitX=0;exitY=0.5;exitDx=0;exitDy=0;" parent="1" source="eEUwu_0mKjTyCW-i72Yi-9" edge="1">
          <mxGeometry width="50" height="50" relative="1" as="geometry">
            <mxPoint x="400" y="234" as="sourcePoint" />
            <mxPoint x="310" y="240" as="targetPoint" />
          </mxGeometry>
        </mxCell>
        <mxCell id="eEUwu_0mKjTyCW-i72Yi-45" value="Produces" style="rhombus;whiteSpace=wrap;html=1;strokeWidth=1;fontSize=14;fontStyle=0" parent="1" vertex="1">
          <mxGeometry x="150" y="320" width="80" height="80" as="geometry" />
        </mxCell>
        <mxCell id="eEUwu_0mKjTyCW-i72Yi-46" value="" style="endArrow=none;html=1;rounded=0;entryX=0.5;entryY=0;entryDx=0;entryDy=0;exitX=0.141;exitY=1;exitDx=0;exitDy=0;exitPerimeter=0;" parent="1" source="eEUwu_0mKjTyCW-i72Yi-1" target="eEUwu_0mKjTyCW-i72Yi-45" edge="1">
          <mxGeometry width="50" height="50" relative="1" as="geometry">
            <mxPoint x="290" y="280" as="sourcePoint" />
            <mxPoint x="290" y="330" as="targetPoint" />
          </mxGeometry>
        </mxCell>
        <mxCell id="eEUwu_0mKjTyCW-i72Yi-47" value="" style="endArrow=none;html=1;rounded=0;entryX=0.5;entryY=0;entryDx=0;entryDy=0;exitX=0.5;exitY=1;exitDx=0;exitDy=0;shape=link;" parent="1" source="eEUwu_0mKjTyCW-i72Yi-45" target="eEUwu_0mKjTyCW-i72Yi-4" edge="1">
          <mxGeometry width="50" height="50" relative="1" as="geometry">
            <mxPoint x="200" y="280" as="sourcePoint" />
            <mxPoint x="200" y="330" as="targetPoint" />
          </mxGeometry>
        </mxCell>
        <mxCell id="eEUwu_0mKjTyCW-i72Yi-48" value="M" style="text;html=1;align=center;verticalAlign=middle;resizable=0;points=[];autosize=1;strokeColor=none;fillColor=none;" parent="1" vertex="1">
          <mxGeometry x="280" y="180" width="30" height="30" as="geometry" />
        </mxCell>
        <mxCell id="eEUwu_0mKjTyCW-i72Yi-49" value="M" style="text;html=1;align=center;verticalAlign=middle;resizable=0;points=[];autosize=1;strokeColor=none;fillColor=none;" parent="1" vertex="1">
          <mxGeometry x="370" y="90" width="30" height="30" as="geometry" />
        </mxCell>
        <mxCell id="eEUwu_0mKjTyCW-i72Yi-50" value="Has" style="rhombus;whiteSpace=wrap;html=1;strokeWidth=1;fontSize=14;fontStyle=0" parent="1" vertex="1">
          <mxGeometry x="390" y="430" width="80" height="80" as="geometry" />
        </mxCell>
        <mxCell id="eEUwu_0mKjTyCW-i72Yi-51" value="" style="endArrow=none;html=1;rounded=0;entryX=1;entryY=0.5;entryDx=0;entryDy=0;exitX=0;exitY=0.5;exitDx=0;exitDy=0;shape=link;" parent="1" source="eEUwu_0mKjTyCW-i72Yi-50" target="eEUwu_0mKjTyCW-i72Yi-4" edge="1">
          <mxGeometry width="50" height="50" relative="1" as="geometry">
            <mxPoint x="580" y="370" as="sourcePoint" />
            <mxPoint x="330" y="370" as="targetPoint" />
          </mxGeometry>
        </mxCell>
        <mxCell id="eEUwu_0mKjTyCW-i72Yi-52" value="" style="endArrow=none;html=1;rounded=0;entryX=1;entryY=0.5;entryDx=0;entryDy=0;exitX=0.5;exitY=1;exitDx=0;exitDy=0;shape=link;" parent="1" source="eEUwu_0mKjTyCW-i72Yi-5" target="eEUwu_0mKjTyCW-i72Yi-50" edge="1">
          <mxGeometry width="50" height="50" relative="1" as="geometry">
            <mxPoint x="400" y="480" as="sourcePoint" />
            <mxPoint x="270" y="480" as="targetPoint" />
            <Array as="points">
              <mxPoint x="640" y="470" />
            </Array>
          </mxGeometry>
        </mxCell>
        <mxCell id="eEUwu_0mKjTyCW-i72Yi-53" value="M" style="text;html=1;align=center;verticalAlign=middle;resizable=0;points=[];autosize=1;strokeColor=none;fillColor=none;" parent="1" vertex="1">
          <mxGeometry x="610" y="390" width="30" height="30" as="geometry" />
        </mxCell>
        <mxCell id="eEUwu_0mKjTyCW-i72Yi-54" value="1" style="text;html=1;align=center;verticalAlign=middle;resizable=0;points=[];autosize=1;strokeColor=none;fillColor=none;" parent="1" vertex="1">
          <mxGeometry x="260" y="440" width="30" height="30" as="geometry" />
        </mxCell>
        <mxCell id="eEUwu_0mKjTyCW-i72Yi-55" value="M" style="text;html=1;align=center;verticalAlign=middle;resizable=0;points=[];autosize=1;strokeColor=none;fillColor=none;" parent="1" vertex="1">
          <mxGeometry x="320" y="330" width="30" height="30" as="geometry" />
        </mxCell>
        <mxCell id="eEUwu_0mKjTyCW-i72Yi-56" value="M" style="text;html=1;align=center;verticalAlign=middle;resizable=0;points=[];autosize=1;strokeColor=none;fillColor=none;" parent="1" vertex="1">
          <mxGeometry x="540" y="330" width="30" height="30" as="geometry" />
        </mxCell>
        <mxCell id="eEUwu_0mKjTyCW-i72Yi-57" value="1" style="text;html=1;align=center;verticalAlign=middle;resizable=0;points=[];autosize=1;strokeColor=none;fillColor=none;" parent="1" vertex="1">
          <mxGeometry x="190" y="270" width="30" height="30" as="geometry" />
        </mxCell>
        <mxCell id="eEUwu_0mKjTyCW-i72Yi-58" value="M" style="text;html=1;align=center;verticalAlign=middle;resizable=0;points=[];autosize=1;strokeColor=none;fillColor=none;" parent="1" vertex="1">
          <mxGeometry x="190" y="410" width="30" height="30" as="geometry" />
        </mxCell>
      </root>
    </mxGraphModel>
  </diagram>
</mxfile>
